<svg xmlns="http://www.w3.org/2000/svg" xmlns:xlink="http://www.w3.org/1999/xlink" fill="none" version="1.1" width="19.445236206054688" height="33.75537109375" viewBox="0 0 19.445236206054688 33.75537109375"><g><path d="M18.171,18.9874C18.171,18.9874,19.1793,12.8785,19.1793,12.8785C19.1793,12.8785,12.8746,12.8785,12.8746,12.8785C12.8746,12.8785,12.8746,8.91419,12.8746,8.91419C12.8746,7.2429,13.7553,5.61381,16.579,5.61381C16.579,5.61381,19.4452,5.61381,19.4452,5.61381C19.4452,5.61381,19.4452,0.412712,19.4452,0.412712C19.4452,0.412712,16.8442,0,14.3574,0C9.16526,0,5.77145,2.9259,5.77145,8.2226C5.77145,8.2226,5.77145,12.8785,5.77145,12.8785C5.77145,12.8785,0,12.8785,0,12.8785C0,12.8785,0,18.9874,0,18.9874C0,18.9874,5.77145,18.9874,5.77145,18.9874C5.77145,18.9874,5.77145,33.7554,5.77145,33.7554C5.77145,33.7554,12.8746,33.7554,12.8746,33.7554C12.8746,33.7554,12.8746,18.9874,12.8746,18.9874C12.8746,18.9874,18.171,18.9874,18.171,18.9874C18.171,18.9874,18.171,18.9874,18.171,18.9874Z" fill="#FFFFFF" fill-opacity="1" style="mix-blend-mode:passthrough"/></g></svg>