<svg xmlns="http://www.w3.org/2000/svg" xmlns:xlink="http://www.w3.org/1999/xlink" fill="none" version="1.1" width="39.11904525756836" height="34.755470275878906" viewBox="0 0 39.11904525756836 34.755470275878906"><g><path d="M19.5638,8.72326C14.1552,8.72326,9.79271,12.5873,9.79271,17.3777C9.79271,22.1682,14.1552,26.0322,19.5638,26.0322C24.9723,26.0322,29.3348,22.1682,29.3348,17.3777C29.3348,12.5873,24.9723,8.72326,19.5638,8.72326C19.5638,8.72326,19.5638,8.72326,19.5638,8.72326ZM19.5638,23.0043C16.0686,23.0043,13.2113,20.481,13.2113,17.3777C13.2113,14.2745,16.0601,11.7512,19.5638,11.7512C23.0674,11.7512,25.9162,14.2745,25.9162,17.3777C25.9162,20.481,23.0589,23.0043,19.5638,23.0043C19.5638,23.0043,19.5638,23.0043,19.5638,23.0043ZM32.0136,8.369250000000001C32.0136,9.49154,30.9931,10.38787,29.7345,10.38787C28.4674,10.38787,27.4555,9.48401,27.4555,8.369250000000001C27.4555,7.25448,28.4759,6.35062,29.7345,6.35062C30.9931,6.35062,32.0136,7.25448,32.0136,8.369250000000001C32.0136,8.369250000000001,32.0136,8.369250000000001,32.0136,8.369250000000001ZM38.4851,10.418C38.3405,7.71395,37.6432,5.31871,35.4067,3.34528C33.1786,1.37185,30.4744,0.754211,27.4214,0.618632C24.275,0.4604561,14.8441,0.4604561,11.6976,0.618632C8.65318,0.746679,5.94892,1.364318,3.71237,3.33775C1.475831,5.31118,0.7870090000000001,7.70641,0.633938,10.41047C0.4553542,13.1974,0.4553542,21.5506,0.633938,24.3375C0.778505,27.0415,1.47583,29.4368,3.71237,31.4102C5.94892,33.3836,8.64468,34.0013,11.6976,34.1368C14.8441,34.295,24.275,34.295,27.4214,34.1368C30.4744,34.0088,33.1786,33.3912,35.4067,31.4102C37.6347,29.4368,38.332,27.0415,38.4851,24.3375C38.6637,21.5506,38.6637,13.2049,38.4851,10.418C38.4851,10.418,38.4851,10.418,38.4851,10.418ZM34.4202,27.3277C33.7569,28.8041,32.4728,29.9414,30.7975,30.5365C28.2888,31.4177,22.3361,31.2144,19.5638,31.2144C16.7915,31.2144,10.8302,31.4102,8.33003,30.5365C6.66325,29.9489,5.37915,28.8116,4.70734,27.3277C3.71237,25.1058,3.94198,19.8332,3.94198,17.3777C3.94198,14.9222,3.72088,9.64219,4.70734,7.42772C5.37065,5.95142,6.65475,4.81406,8.33003,4.21902C10.8387,3.33775,16.7915,3.54112,19.5638,3.54112C22.3361,3.54112,28.2973,3.34528,30.7975,4.21902C32.4643,4.80653,33.7484,5.94388,34.4202,7.42772C35.4152,9.64972,35.1856,14.9222,35.1856,17.3777C35.1856,19.8332,35.4152,25.1133,34.4202,27.3277C34.4202,27.3277,34.4202,27.3277,34.4202,27.3277Z" fill="#FFFFFF" fill-opacity="1" style="mix-blend-mode:passthrough"/><path d="M39.119,17.3777Q39.119,12.4982,38.9844,10.3913L38.9841,10.38602Q38.7271,5.60828,35.7382,2.97099Q32.7862,0.35638800000000004,27.4465,0.11926199999999998Q19.5595,-0.27722500000000005,11.6766,0.11907400000000001Q6.35059,0.343082,3.38156,2.96283Q0.4061139,5.58824,0.134961,10.37849Q0,12.4846,0,17.374Q0,22.2633,0.13465100000000002,24.3642Q0.390287,29.1457,3.38156,31.7851Q6.34465,34.3996,11.6725,34.6362Q19.5595,35.0327,27.4424,34.6364Q32.7825,34.4124,35.7382,31.7845Q38.7135,29.1492,38.9841,24.3694Q39.119,22.2633,39.119,17.3777ZM38.4849,10.41801L37.9858,10.44469Q37.7526,6.08203,35.0751,3.71957Q32.3882,1.339698,27.3963,1.118001Q19.5595,0.724038,11.7186,1.118191Q6.74657,1.327311,4.04319,3.71267Q1.380911,6.06175,1.132914,10.44244Q1,12.5167,1,17.374Q1,22.2313,1.133224,24.3108Q1.366465,28.6734,4.04319,31.0353Q6.74162,33.4162,11.7227,33.6375Q19.5595,34.0314,27.4005,33.6373Q32.3844,33.4282,35.0751,31.0359Q37.7387,28.6767,37.9861,24.3055Q38.1191,22.2313,38.119,17.3777Q38.119,12.5242,37.9861,10.44997L38.4849,10.41801ZM35.6953,18.5747Q35.6856,17.7244,35.6856,17.3777Q35.6856,17.0311,35.6953,16.180999999999997Q35.7748,9.22942,34.8757,7.2215Q33.747,4.7285,30.9625,3.74701Q28.7291,2.96652,20.8887,3.03313Q19.9486,3.04112,19.5638,3.04112Q19.1715,3.04112,18.2106,3.0325Q10.39863,2.96239,8.16268,3.74785Q5.3663,4.7411,4.2506,7.22427Q3.35742,9.22935,3.43297,16.2058Q3.44198,17.0377,3.44198,17.3777Q3.44198,17.7243,3.43226,18.5745Q3.35274,25.526,4.25185,27.534Q5.38056,30.027,8.16507,31.0085Q10.39838,31.7889,18.2388,31.7223Q19.1792,31.7144,19.5638,31.7144Q19.9558,31.7144,20.9169,31.723Q28.729,31.7931,30.9649,31.0076Q33.7612,30.0144,34.8763,27.5327Q35.7748,25.5328,35.6953,18.5747ZM34.6954,16.1695Q34.6856,17.0254,34.6856,17.3777Q34.6856,17.7301,34.6954,18.5861Q34.7724,25.3239,33.9641,27.1228Q33.0241,29.215,30.6302,30.0653Q28.5628,30.7915,20.9259,30.723Q19.9602,30.7144,19.5638,30.7144Q19.1749,30.7144,18.2303,30.7224Q10.5639,30.7875,8.49498,30.0645Q6.11551,29.2257,5.16283,27.1215Q4.35518,25.3178,4.43219,18.586Q4.44198,17.73,4.44198,17.3777Q4.44198,17.0323,4.43291,16.195Q4.35973,9.43683,5.16407,7.63118Q6.10343,5.54048,8.49738,4.69018Q10.5648,3.96392,18.2016,4.03246Q19.167,4.041119999999999,19.5638,4.041119999999999Q19.9529,4.041119999999999,20.8972,4.0331Q28.5635,3.96796,30.6326,4.69102Q33.012,5.52975,33.9647,7.63395Q34.7724,9.43763,34.6954,16.1695ZM31.6775,6.56761Q30.868,5.85062,29.7345,5.85062Q28.601,5.85062,27.7915,6.56761Q26.9555,7.30811,26.9555,8.369250000000001Q26.9555,9.4313,27.7878,10.17046Q28.5957,10.8879,29.7345,10.8879Q30.8692,10.8879,31.6771,10.17414Q32.5136,9.43511,32.5136,8.369250000000001Q32.5136,7.30811,31.6775,6.56761ZM28.4545,7.31619Q28.9802,6.85062,29.7345,6.85062Q30.4889,6.85062,31.0145,7.31619Q31.5136,7.75824,31.5136,8.369250000000001Q31.5136,8.98421,31.015,9.4247Q30.4907,9.88787,29.7345,9.88787Q28.9756,9.88787,28.4518,9.42273Q27.9555,8.98195,27.9555,8.369250000000001Q27.9555,7.75824,28.4545,7.31619ZM26.809,23.8757Q29.8348,21.1957,29.8348,17.3777Q29.8348,13.5598,26.809,10.8798Q23.8098,8.22326,19.5638,8.22326Q15.3178,8.22326,12.3185,10.8798Q9.29271,13.5598,9.29271,17.3777Q9.29272,21.1957,12.3185,23.8757Q15.3178,26.5322,19.5638,26.5322Q23.8098,26.5322,26.809,23.8757ZM26.146,11.6284Q28.8348,14.0099,28.8348,17.3777Q28.8348,20.7455,26.146,23.1271Q23.4306,25.5322,19.5638,25.5322Q15.697,25.5322,12.9816,23.1271Q10.29271,20.7455,10.29271,17.3777Q10.29272,14.0099,12.9816,11.6284Q15.697,9.22326,19.5638,9.22326Q23.4306,9.22326,26.146,11.6284ZM23.7193,20.9803Q21.9971,22.5043,19.5638,22.5043Q17.1304,22.5043,15.4082,20.9803Q13.7113,19.4787,13.7113,17.3777Q13.7113,15.2754,15.4052,13.775Q17.1256,12.2512,19.5638,12.2512Q22.0019,12.2512,23.7223,13.775Q25.4162,15.2754,25.4162,17.3777Q25.4162,19.4787,23.7193,20.9803ZM14.7455,21.7292Q16.7515,23.5043,19.5638,23.5043Q22.3761,23.5043,24.382,21.7292Q26.4162,19.9291,26.4162,17.3777Q26.4162,14.8252,24.3854,13.0265Q22.3811,11.2512,19.5638,11.2512Q16.7465,11.2512,14.7422,13.0265Q12.7113,14.8252,12.7113,17.3777Q12.7113,19.9291,14.7455,21.7292Z" fill-rule="evenodd" fill="#FFFFFF" fill-opacity="1" style="mix-blend-mode:passthrough"/></g></svg>