<svg xmlns="http://www.w3.org/2000/svg" xmlns:xlink="http://www.w3.org/1999/xlink" fill="none" version="1.1" width="26.877052307128906" height="25.559459686279297" viewBox="0 0 26.877052307128906 25.559459686279297"><g><path d="M19.7098,15.3357C17.918,17.0396,17.918,18.7436,16.1262,18.7436C14.3344,18.7436,12.5426,17.0396,10.7508,15.3357C8.95902,13.6317,7.16721,11.9277,7.16721,10.2238C7.16721,8.51982,8.95902,8.51982,10.7508,6.81586C12.5426,5.11189,7.16721,0,5.37541,0C3.58361,0,4.44089e-16,5.11189,4.44089e-16,5.11189C4.44089e-16,8.51982,3.6816,15.4289,7.16721,18.7436C10.6528,22.0583,17.918,25.5595,21.5016,25.5595C21.5016,25.5595,26.8771,22.1515,26.8771,20.4476C26.8771,18.7436,21.5016,13.6317,19.7098,15.3357C19.7098,15.3357,19.7098,15.3357,19.7098,15.3357Z" fill="#FFFFFF" fill-opacity="1" style="mix-blend-mode:passthrough"/></g></svg>