<svg xmlns="http://www.w3.org/2000/svg" xmlns:xlink="http://www.w3.org/1999/xlink" fill="none" version="1.1" width="44.65607833862305" height="33.75537109375" viewBox="0 0 44.65607833862305 33.75537109375"><g><path d="M43.7229,5.28157C43.2094,3.20263,41.6962,1.56532,39.7749,1.00967C36.2924,0,22.328,0,22.328,0C22.328,0,8.36376,0,4.8812,1.00967C2.95991,1.56541,1.44671,3.20263,0.933132,5.28157C0,9.04978,0,16.9118,0,16.9118C0,16.9118,0,24.7738,0.933132,28.542C1.44671,30.621,2.95991,32.1901,4.8812,32.7457C8.36376,33.7554,22.328,33.7554,22.328,33.7554C22.328,33.7554,36.2923,33.7554,39.7749,32.7457C41.6962,32.1901,43.2094,30.621,43.7229,28.542C44.6561,24.7738,44.6561,16.9118,44.6561,16.9118C44.6561,16.9118,44.6561,9.04978,43.7229,5.28157C43.7229,5.28157,43.7229,5.28157,43.7229,5.28157ZM17.7609,24.0499C17.7609,24.0499,17.7609,9.77367,17.7609,9.77367C17.7609,9.77367,29.4323,16.912,29.4323,16.912C29.4323,16.912,17.7609,24.0499,17.7609,24.0499C17.7609,24.0499,17.7609,24.0499,17.7609,24.0499Z" fill="#FFFFFF" fill-opacity="1" style="mix-blend-mode:passthrough"/></g></svg>