<svg xmlns="http://www.w3.org/2000/svg" xmlns:xlink="http://www.w3.org/1999/xlink" fill="none" version="1.1" width="31.5" height="31.5" viewBox="0 0 31.5 31.5"><g><path d="M29.25,0C29.25,0,2.24297,0,2.24297,0C1.00547,0,0,1.01953,0,2.27109C0,2.27109,0,29.2289,0,29.2289C0,30.4805,1.00547,31.5,2.24297,31.5C2.24297,31.5,29.25,31.5,29.25,31.5C30.4875,31.5,31.5,30.4805,31.5,29.2289C31.5,29.2289,31.5,2.27109,31.5,2.27109C31.5,1.01953,30.4875,0,29.25,0C29.25,0,29.25,0,29.25,0ZM9.52031,27C9.52031,27,4.85156,27,4.85156,27C4.85156,27,4.85156,11.9672,4.85156,11.9672C4.85156,11.9672,9.52734,11.9672,9.52734,11.9672C9.52734,11.9672,9.52734,27,9.52734,27C9.52734,27,9.52031,27,9.52031,27ZM7.18594,9.91406C5.68828,9.91406,4.47891,8.69766,4.47891,7.20703C4.47891,5.71641,5.68828,4.5,7.18594,4.5C8.67656,4.5,9.89297,5.71641,9.89297,7.20703C9.89297,8.70469,8.68359,9.91406,7.18594,9.91406C7.18594,9.91406,7.18594,9.91406,7.18594,9.91406ZM27.0211,27C27.0211,27,22.3523,27,22.3523,27C22.3523,27,22.3523,19.6875,22.3523,19.6875C22.3523,17.9438,22.3172,15.7008,19.9266,15.7008C17.4938,15.7008,17.1211,17.5992,17.1211,19.5609C17.1211,19.5609,17.1211,27,17.1211,27C17.1211,27,12.4523,27,12.4523,27C12.4523,27,12.4523,11.9672,12.4523,11.9672C12.4523,11.9672,16.9312,11.9672,16.9312,11.9672C16.9312,11.9672,16.9312,14.0203,16.9312,14.0203C16.9312,14.0203,16.9945,14.0203,16.9945,14.0203C17.6203,12.8391,19.1461,11.5945,21.4172,11.5945C26.1422,11.5945,27.0211,14.7094,27.0211,18.7594C27.0211,18.7594,27.0211,27,27.0211,27C27.0211,27,27.0211,27,27.0211,27Z" fill="#FFFFFF" fill-opacity="1" style="mix-blend-mode:passthrough"/></g></svg>