<svg xmlns="http://www.w3.org/2000/svg" xmlns:xlink="http://www.w3.org/1999/xlink" fill="none" version="1.1" width="29.25" height="20.25" viewBox="0 0 29.25 20.25"><g><g><path d="M29.0109,2.4820309219085694C29.0109,2.4820309219085694,21.4453,10.18828722190857,21.4453,10.18828722190857C21.3891,10.24452722190857,21.3891,10.328907221908569,21.4453,10.38515722190857C21.4453,10.38515722190857,26.7398,16.02418722190857,26.7398,16.02418722190857C27.0984,16.382787221908572,27.0984,16.95938722190857,26.7398,17.31798722190857C26.5641,17.49378722190857,26.325,17.58518722190857,26.093,17.58518722190857C25.8609,17.58518722190857,25.6219,17.49378722190857,25.4461,17.31798722190857C25.4461,17.31798722190857,20.1727,11.69999722190857,20.1727,11.69999722190857C20.1164,11.64374722190857,20.025,11.64374722190857,19.9687,11.69999722190857C19.9687,11.69999722190857,18.682,13.00778722190857,18.682,13.00778722190857C17.6062,14.097687221908568,16.1789,14.70238722190857,14.6461,14.70938722190857C13.0922,14.716387221908569,11.6156,14.062487221908569,10.5258,12.95858722190857C10.5258,12.95858722190857,9.28828,11.69999722190857,9.28828,11.69999722190857C9.23203,11.64374722190857,9.14062,11.64374722190857,9.08437,11.69999722190857C9.08437,11.69999722190857,3.81094,17.31798722190857,3.81094,17.31798722190857C3.63515,17.49378722190857,3.39609,17.58518722190857,3.16406,17.58518722190857C2.93203,17.58518722190857,2.69297,17.49378722190857,2.51719,17.31798722190857C2.15859,16.95938722190857,2.15859,16.382787221908572,2.51719,16.02418722190857C2.51719,16.02418722190857,7.81172,10.38515722190857,7.81172,10.38515722190857C7.86094,10.328907221908569,7.86094,10.24452722190857,7.81172,10.188277221908569C7.81172,10.188277221908569,0.239063,2.4820309219085694,0.239063,2.4820309219085694C0.147656,2.390625021908569,0,2.4539061219085694,0,2.5804682219085695C0,2.5804682219085695,0,17.99998722190857,0,17.99998722190857C0,19.23748722190857,1.0125,20.24998722190857,2.25,20.24998722190857C2.25,20.24998722190857,27,20.24998722190857,27,20.24998722190857C28.2375,20.24998722190857,29.25,19.23748722190857,29.25,17.99998722190857C29.25,17.99998722190857,29.25,2.580469221908569,29.25,2.580469221908569C29.25,2.4539061219085694,29.0953,2.3976565219085693,29.0109,2.4820309219085694C29.0109,2.4820309219085694,29.0109,2.4820309219085694,29.0109,2.4820309219085694Z" fill="#FFFFFF" fill-opacity="1" style="mix-blend-mode:passthrough"/></g><g><path d="M14.624980963897706,12.8742C15.665580963897705,12.8742,16.642980963897706,12.4664,17.374180963897704,11.7211C17.374180963897704,11.7211,28.406280963897704,0.492188,28.406280963897704,0.492188C28.019580963897706,0.182813,27.541380963897705,0,27.014080963897705,0C27.014080963897705,0,2.2429709638977053,0,2.2429709638977053,0C1.715624963897705,0,1.230468963897705,0.182813,0.8507809638977051,0.492188C0.8507809638977051,0.492188,11.882780963897705,11.7211,11.882780963897705,11.7211C12.606980963897705,12.4594,13.584380963897704,12.8742,14.624980963897706,12.8742C14.624980963897706,12.8742,14.624980963897706,12.8742,14.624980963897706,12.8742Z" fill="#FFFFFF" fill-opacity="1" style="mix-blend-mode:passthrough"/></g></g></svg>