<svg xmlns="http://www.w3.org/2000/svg" xmlns:xlink="http://www.w3.org/1999/xlink" fill="none" version="1.1" width="43.24951171875" height="33.75546646118164" viewBox="0 0 43.24951171875 33.75546646118164"><g><path d="M38.8039,8.41247C38.8314,8.78165,38.8314,9.15091,38.8314,9.5201C38.8314,20.7807,29.9126,33.7555,13.6116,33.7555C8.58954,33.7555,3.92432,32.3577,0,29.9316C0.713535,30.0107,1.39953,30.0371,2.14052,30.0371C6.2843,30.0371,10.0989,28.6922,13.145,26.3979C9.24817,26.3187,5.98248,23.8662,4.85731,20.4906C5.40621,20.5697,5.95502,20.6224,6.53138,20.6224C7.32719,20.6224,8.12308,20.5169,8.86399,20.3324C4.80249,19.5412,1.75626,16.1129,1.75626,11.9726C1.75626,11.9726,1.75626,11.8672,1.75626,11.8672C2.93625,12.5001,4.3085,12.8957,5.76285,12.9483C3.37533,11.4188,1.81117,8.80803,1.81117,5.8544C1.81117,4.27215,2.25017,2.82172,3.01861,1.55588C7.38201,6.72468,13.9408,10.1002,21.2954,10.4694C21.1582,9.83651,21.0759,9.17729,21.0759,8.51799C21.0759,3.82382,25.0276,0,29.9398,0C32.492,0,34.7972,1.02848,36.4163,2.68989C38.4196,2.32071,40.3405,1.60864,42.0421,0.63292C41.3834,2.61082,39.9838,4.27223,38.1452,5.32701C39.929,5.1425,41.6579,4.66771,43.2495,4.00849C42.0422,5.69619,40.5328,7.19931,38.8039,8.41246C38.8039,8.41246,38.8039,8.41247,38.8039,8.41247Z" fill="#FFFFFF" fill-opacity="1" style="mix-blend-mode:passthrough"/></g></svg>